<svg width="32" height="32" viewBox="0 0 32 32" fill="none" xmlns="http://www.w3.org/2000/svg">
<rect width="32" height="32" fill="white"/>
<rect x="5.5" y="8.5" width="21" height="16" rx="1.5" stroke="#2E5B9E"/>
<path d="M11 6V8" stroke="#2E5B9E" stroke-linecap="round"/>
<path d="M21.5 6V8" stroke="#2E5B9E" stroke-linecap="round"/>
<path d="M5.5 13H26.5" stroke="#2E5B9E"/>
<rect x="8.4" y="14.4" width="3.2" height="3.2" rx="0.6" stroke="#2E5B9E" stroke-width="0.8"/>
<rect x="14.4" y="14.4" width="3.2" height="3.2" rx="0.6" stroke="#2E5B9E" stroke-width="0.8"/>
<rect x="20.4" y="14.4" width="3.2" height="3.2" rx="0.6" stroke="#2E5B9E" stroke-width="0.8"/>
<rect x="8.4" y="19.4" width="3.2" height="3.2" rx="0.6" stroke="#2E5B9E" stroke-width="0.8"/>
<rect x="14.4" y="19.4" width="3.2" height="3.2" rx="0.6" stroke="#2E5B9E" stroke-width="0.8"/>
<rect x="20.4" y="19.4" width="3.2" height="3.2" rx="0.6" stroke="#2E5B9E" stroke-width="0.8"/>
<circle cx="23" cy="22" r="4.5" fill="white" stroke="#2E5B9E"/>
<path d="M23 20.5V22.5H24.5" stroke="#2E5B9E" stroke-linecap="round"/>
<path d="M8.09521 12V9.85156H8.74951L8.93018 11.1614L9.10962 9.85156H9.77002V12H9.37695V10.4521L9.13037 12H8.74463L8.4834 10.4521V12H8.09521ZM10.4573 12.0195C10.2782 12.0195 10.1464 11.9695 10.0618 11.8694C9.97713 11.7685 9.93481 11.6204 9.93481 11.425V10.0957H10.3523V11.4202C10.3523 11.456 10.3543 11.4906 10.3584 11.5239C10.3625 11.5565 10.3718 11.5833 10.3865 11.6045C10.4011 11.6257 10.4247 11.6362 10.4573 11.6362C10.4906 11.6362 10.5146 11.6261 10.5293 11.6057C10.5439 11.5846 10.5529 11.5573 10.5562 11.5239C10.5602 11.4906 10.5623 11.456 10.5623 11.4202V10.0957H10.9797V11.425C10.9797 11.6204 10.9374 11.7685 10.8528 11.8694C10.7681 11.9695 10.6363 12.0195 10.4573 12.0195ZM11.6548 12.0195C11.4587 12.0195 11.3171 11.9707 11.23 11.873C11.1437 11.7754 11.1006 11.62 11.1006 11.4067V11.1968H11.5254V11.4653C11.5254 11.515 11.5327 11.554 11.5474 11.5825C11.5628 11.6102 11.5893 11.624 11.6267 11.624C11.6658 11.624 11.6926 11.6126 11.7073 11.5898C11.7227 11.5671 11.7305 11.5296 11.7305 11.4775C11.7305 11.4116 11.724 11.3567 11.7109 11.3127C11.6979 11.268 11.6751 11.2257 11.6426 11.1858C11.6108 11.1451 11.5665 11.0979 11.5095 11.0442L11.3167 10.8611C11.1726 10.7252 11.1006 10.5697 11.1006 10.3948C11.1006 10.2117 11.1429 10.0721 11.2275 9.97607C11.313 9.88005 11.4363 9.83203 11.5974 9.83203C11.7944 9.83203 11.9339 9.88452 12.0161 9.9895C12.0991 10.0945 12.1406 10.254 12.1406 10.468H11.7036V10.3203C11.7036 10.291 11.6951 10.2682 11.678 10.252C11.6617 10.2357 11.6393 10.2275 11.6108 10.2275C11.5767 10.2275 11.5514 10.2373 11.5352 10.2568C11.5197 10.2756 11.512 10.3 11.512 10.3301C11.512 10.3602 11.5201 10.3927 11.5364 10.4277C11.5527 10.4627 11.5848 10.503 11.6328 10.5486L11.8806 10.7866C11.9303 10.8338 11.9758 10.8839 12.0173 10.9368C12.0588 10.9889 12.0922 11.0499 12.1174 11.1199C12.1427 11.189 12.1553 11.2737 12.1553 11.3738C12.1553 11.5756 12.1178 11.7339 12.043 11.8486C11.9689 11.9626 11.8395 12.0195 11.6548 12.0195ZM12.7998 12.0195C12.6444 12.0195 12.519 11.9711 12.4238 11.8743C12.3294 11.7774 12.2822 11.6419 12.2822 11.4678V10.7207C12.2822 10.5124 12.3233 10.3529 12.4055 10.2422C12.4885 10.1315 12.6232 10.0762 12.8096 10.0762C12.9113 10.0762 13.0016 10.0949 13.0806 10.1323C13.1603 10.1698 13.223 10.2259 13.2686 10.3008C13.3141 10.3748 13.3369 10.4684 13.3369 10.5815V10.9233H12.9097V10.623C12.9097 10.5588 12.9015 10.5156 12.8853 10.4937C12.869 10.4709 12.8438 10.4595 12.8096 10.4595C12.7697 10.4595 12.7428 10.4741 12.729 10.5034C12.7152 10.5319 12.7083 10.5701 12.7083 10.6182V11.4739C12.7083 11.5333 12.7168 11.5752 12.7339 11.5996C12.7518 11.624 12.777 11.6362 12.8096 11.6362C12.8462 11.6362 12.8718 11.6212 12.8865 11.5911C12.9019 11.561 12.9097 11.5219 12.9097 11.4739V11.1968H13.3418V11.4812C13.3418 11.67 13.2942 11.8071 13.199 11.8926C13.1038 11.9772 12.9707 12.0195 12.7998 12.0195ZM13.4858 12V10.0957H13.9131V10.772H14.1157V10.0957H14.543V12H14.1157V11.1785H13.9131V12H13.4858ZM14.7334 12V10.0957H15.5928V10.5107H15.1704V10.8257H15.5757V11.2297H15.1704V11.5813H15.6208V12H14.7334ZM15.7637 12V10.0957H16.3557C16.5103 10.0957 16.6263 10.1388 16.7036 10.2251C16.7817 10.3105 16.8208 10.4359 16.8208 10.6011V11.3628C16.8208 11.5662 16.7854 11.7233 16.7146 11.834C16.6438 11.9447 16.5193 12 16.3411 12H15.7637ZM16.1958 11.6204H16.2703C16.3492 11.6204 16.3887 11.5821 16.3887 11.5056V10.6414C16.3887 10.5697 16.3789 10.5238 16.3594 10.5034C16.3407 10.4823 16.302 10.4717 16.2434 10.4717H16.1958V11.6204Z" fill="#182F53"/>
</svg>
